<svg xmlns="http://www.w3.org/2000/svg" viewBox="0 0 457.92 129.75"><defs><style>.cls-1{fill:#ff5100;}</style></defs><title>Recurso 1R_R_2018</title><g id="Capa_2" data-name="Capa 2"><g id="Capa_1-2" data-name="Capa 1"><path class="cls-1" d="M344.66,14.05c-37.9-5.13-173,2-232.38,33.77,56.16-20.6,211.13-31.46,293-15.73C364.82,17.83,344.66,14.05,344.66,14.05Z"/><path class="cls-1" d="M109.59,71.71a49.11,49.11,0,0,0-6.44-1.89c-1.91-.47-3.42-.88-4.52-1.25a7.9,7.9,0,0,1-2.74-1.51,3.15,3.15,0,0,1-1.08-2.47,4.06,4.06,0,0,1,1.88-3.47q1.89-1.3,5.76-1.3a18,18,0,0,1,4.88.7,20.85,20.85,0,0,1,4.83,2.06l2.06-5.08a17.73,17.73,0,0,0-5.38-2.31,25.11,25.11,0,0,0-6.34-.81,19.35,19.35,0,0,0-7.82,1.41,10.77,10.77,0,0,0-4.78,3.8,9.43,9.43,0,0,0-1.58,5.31,8.05,8.05,0,0,0,1.78,5.5,10.64,10.64,0,0,0,4.28,3,52.65,52.65,0,0,0,6.51,1.92c1.91.46,3.42.88,4.53,1.25a7.57,7.57,0,0,1,2.74,1.54,3.21,3.21,0,0,1,1.08,2.49,3.8,3.8,0,0,1-1.94,3.31,10.88,10.88,0,0,1-5.86,1.26,19.33,19.33,0,0,1-6.31-1.08,17.82,17.82,0,0,1-5.3-2.79l-2.26,5.08a16.39,16.39,0,0,0,6,3.07,27,27,0,0,0,7.87,1.15,19.54,19.54,0,0,0,7.85-1.41,10.67,10.67,0,0,0,4.8-3.77,9.22,9.22,0,0,0,1.59-5.28,7.88,7.88,0,0,0-1.79-5.43A11,11,0,0,0,109.59,71.71Z"/><path class="cls-1" d="M123.55,51.27a4.06,4.06,0,0,0-2.87,1.08,3.72,3.72,0,0,0,0,5.38,4.06,4.06,0,0,0,2.87,1.08,3.93,3.93,0,0,0,2.89-1.13,3.79,3.79,0,0,0,1.13-2.79,3.32,3.32,0,0,0-1.15-2.59A4.14,4.14,0,0,0,123.55,51.27Z"/><rect class="cls-1" x="120.38" y="63.24" width="6.29" height="26.85"/><path class="cls-1" d="M152.41,64.67a14,14,0,0,0-7-1.74,14.48,14.48,0,0,0-7.14,1.76,12.66,12.66,0,0,0-5,4.91,14.83,14.83,0,0,0,0,14.18,12.71,12.71,0,0,0,5.21,4.9,16.48,16.48,0,0,0,7.79,1.76,16.84,16.84,0,0,0,6.24-1.1,11.35,11.35,0,0,0,4.57-3.27l-3.37-3.88a9.76,9.76,0,0,1-7.29,2.92,9.53,9.53,0,0,1-5.81-1.73,7.36,7.36,0,0,1-2.89-4.71h21.07c.07-.8.1-1.42.1-1.86a14.74,14.74,0,0,0-1.73-7.26A12.32,12.32,0,0,0,152.41,64.67ZM137.75,74.5a7.5,7.5,0,0,1,2.54-4.75,8.18,8.18,0,0,1,10.24,0A7.46,7.46,0,0,1,153,74.5Z"/><path class="cls-1" d="M169.77,67.16V63.24h-6V90.09h6.28v-13a8.56,8.56,0,0,1,2.06-6.17,7.63,7.63,0,0,1,5.74-2.13,8.12,8.12,0,0,1,1.46.15v-6Q172.49,62.93,169.77,67.16Z"/><path class="cls-1" d="M189.05,67.16V63.24h-6V90.09h6.29v-13a8.56,8.56,0,0,1,2.06-6.17,7.6,7.6,0,0,1,5.73-2.13,8,8,0,0,1,1.46.15v-6Q191.76,62.93,189.05,67.16Z"/><path class="cls-1" d="M258.19,61.68a13.7,13.7,0,0,1,6.61-1.56,13.25,13.25,0,0,1,9.71,4l4.12-4a15.85,15.85,0,0,0-6.08-4.28,21.44,21.44,0,0,0-8.05-1.46,20.31,20.31,0,0,0-9.78,2.34,17.41,17.41,0,0,0-6.82,6.47,18.81,18.81,0,0,0,0,18.6,17.37,17.37,0,0,0,6.79,6.46,20.09,20.09,0,0,0,9.71,2.34,24.29,24.29,0,0,0,7.44-1.15,19.63,19.63,0,0,0,6.34-3.32v-14H263v4.42h9v6.54a14.13,14.13,0,0,1-7.24,1.81,13.28,13.28,0,0,1-6.56-1.61,11.74,11.74,0,0,1-4.53-4.42A12.4,12.4,0,0,1,252,72.49a12.58,12.58,0,0,1,1.63-6.44A11.34,11.34,0,0,1,258.19,61.68Z"/><path class="cls-1" d="M304.43,64.69a16.29,16.29,0,0,0-14.73,0,13,13,0,0,0-5.11,4.88,13.74,13.74,0,0,0-1.83,7.09,13.9,13.9,0,0,0,1.83,7.12,12.89,12.89,0,0,0,5.11,4.9,16.29,16.29,0,0,0,14.73,0,12.89,12.89,0,0,0,5.11-4.9,13.9,13.9,0,0,0,1.83-7.12,13.74,13.74,0,0,0-1.83-7.09A13,13,0,0,0,304.43,64.69Zm-1.66,18.06a8.24,8.24,0,0,1-11.44,0,9.39,9.39,0,0,1,0-12.17,8.21,8.21,0,0,1,11.44,0,9.29,9.29,0,0,1,0,12.17Z"/><path class="cls-1" d="M322.27,67.16V63.24h-6V90.09h6.29v-13a8.52,8.52,0,0,1,2.06-6.17,7.59,7.59,0,0,1,5.73-2.13,8,8,0,0,1,1.46.15v-6Q325,62.93,322.27,67.16Z"/><path class="cls-1" d="M355.86,66.55a9.87,9.87,0,0,0-3.77-2.71,12.89,12.89,0,0,0-4.88-.91,14.17,14.17,0,0,0-7,1.71,12.31,12.31,0,0,0-4.85,4.83,15.63,15.63,0,0,0,0,14.41,12.3,12.3,0,0,0,4.85,4.85,14.17,14.17,0,0,0,7,1.71,13.09,13.09,0,0,0,5.05-1,9.78,9.78,0,0,0,3.85-2.87v3.47h6V52.78h-6.28Zm-1,14.54A7.49,7.49,0,0,1,352,84a8.58,8.58,0,0,1-8.15,0A7.52,7.52,0,0,1,341,81.09a9.85,9.85,0,0,1,0-8.85,7.39,7.39,0,0,1,2.87-2.94,8.5,8.5,0,0,1,8.15,0,7.36,7.36,0,0,1,2.86,2.94,9.77,9.77,0,0,1,0,8.85Z"/><path class="cls-1" d="M387.4,66.5a10.48,10.48,0,0,0-3.79-2.66,12.53,12.53,0,0,0-4.81-.91,14.24,14.24,0,0,0-7,1.71A12.21,12.21,0,0,0,367,69.45a16,16,0,0,0,0,14.45,12.2,12.2,0,0,0,4.83,4.83,14.24,14.24,0,0,0,7,1.71,13.14,13.14,0,0,0,5.06-1,9.85,9.85,0,0,0,3.85-2.87v3.47h6V63.24H387.4Zm-2.16,16.25a8.24,8.24,0,0,1-11.44,0,9.39,9.39,0,0,1,0-12.17,8.21,8.21,0,0,1,11.44,0,9.32,9.32,0,0,1,0,12.17Z"/><path class="cls-1" d="M222.6,66.5a10.6,10.6,0,0,0-3.8-2.66,12.51,12.51,0,0,0-4.8-.91,14.25,14.25,0,0,0-7,1.71,12.12,12.12,0,0,0-4.82,4.81,15.87,15.87,0,0,0,0,14.45A12.11,12.11,0,0,0,207,88.73a14.25,14.25,0,0,0,7,1.71,13.09,13.09,0,0,0,5.05-1,9.78,9.78,0,0,0,3.85-2.87v3.47h6V63.24H222.6Zm-2.16,16.25a8.25,8.25,0,0,1-11.45,0,9.42,9.42,0,0,1,0-12.17,8.22,8.22,0,0,1,11.45,0,9.32,9.32,0,0,1,0,12.17Z"/><path class="cls-1" d="M414.92,81.42a23,23,0,0,0-3.15-.85,13.9,13.9,0,0,1-2.57-.7,1.15,1.15,0,0,1-.8-1.09,1.26,1.26,0,0,1,.67-1.11,4.09,4.09,0,0,1,2.09-.42,8.78,8.78,0,0,1,4.7,1.27l1.47-3.37a8.81,8.81,0,0,0-2.74-1.08,14.58,14.58,0,0,0-3.25-.36,10.48,10.48,0,0,0-4,.68,5.86,5.86,0,0,0-2.58,1.88A4.58,4.58,0,0,0,403.9,79a4,4,0,0,0,.91,2.77A5.23,5.23,0,0,0,407,83.26a23.61,23.61,0,0,0,3.17.85,12.87,12.87,0,0,1,2.56.71,1.18,1.18,0,0,1,.81,1.11,1.19,1.19,0,0,1-.65,1,4.22,4.22,0,0,1-2.09.39,10.82,10.82,0,0,1-3.05-.44,9.18,9.18,0,0,1-2.63-1.18l-1.58,3.37a9.45,9.45,0,0,0,3.07,1.3,15.62,15.62,0,0,0,3.93.49,10.86,10.86,0,0,0,4-.68,5.64,5.64,0,0,0,2.58-1.88,4.62,4.62,0,0,0,.88-2.8,3.81,3.81,0,0,0-.91-2.69A5.08,5.08,0,0,0,414.92,81.42Z"/><path class="cls-1" d="M429.08,77.42a5.07,5.07,0,0,1,4,2l2.94-2.68a7.58,7.58,0,0,0-3-2.3,10.83,10.83,0,0,0-4.14-.72,9.93,9.93,0,0,0-4.72,1.11,8.3,8.3,0,0,0-4.53,7.5,8.25,8.25,0,0,0,1.21,4.41,8.41,8.41,0,0,0,3.32,3.07,9.93,9.93,0,0,0,4.72,1.11,10.93,10.93,0,0,0,4.14-.73,7.49,7.49,0,0,0,3-2.3l-2.94-2.67a5.06,5.06,0,0,1-4,2,5.15,5.15,0,0,1-2.49-.6,4.4,4.4,0,0,1-1.73-1.72,5.18,5.18,0,0,1-.62-2.55,4.68,4.68,0,0,1,4.84-4.9Z"/><polygon class="cls-1" points="457.87 74.03 454.04 74.03 448.24 83.65 442.31 74.03 438.5 74.03 438.5 90.59 442.74 90.59 442.74 81.83 447.15 88.83 449.19 88.83 453.63 81.55 453.66 90.59 457.93 90.59 457.87 74.03"/><path class="cls-1" d="M222.35,0C114.28,11.21,26.36,61,0,129.75,32.7,53.38,174.57,3,303.3,6.1a520.42,520.42,0,0,0-81-6.1Z"/><path class="cls-1" d="M431.6,42.43c-79.46-15.09-165.61-11-245.7-.28a403.14,403.14,0,0,1,77.29,4.54c73.46-8.3,194.63,7.72,194.63,7.72C444,47.52,431.6,42.43,431.6,42.43Z"/></g></g></svg>